PathFileType	4	(x/y/z)	S10_P20_T25
DataRate	CameraRate	NumFrames	NumMarkers	Units	OrigDataRate	OrigDataStartFrame	OrigNumFrames
240	240	10	51	mm	240	347	396
Frame#	Time	Sternum			R.Acromium			L.Acromium			Top.Head			R.ASIS			L.ASIS			R.PSIS			L.PSIS			R.Great.Tro			L.Great.Tro			R.Iliac.Crest			L.Iliac.Crest			V.Sacral			R.Thigh.Upper.Post			R.Thigh.Lower.Ant			R.Thigh.Lower.Post			R.Thigh.Upper.Ant			R.Knee.Lat			R.Knee.Med			R.Shank.Upper.Post			R.Shank.Lower.Ant			R.Shank.Lower.Post			R.Shank.Upper.Ant			R.Ankle.Lat			R.Ankle.Med			R.Heel.Upper			R.Heel.Med			R.Heel.Lat			R.Toe.Lat			R.Toe.Med			R.Toe.Tip			L.Thigh.Upper.Post			L.Thigh.Lower.Ant			L.Thigh.Lower.Post			L.Thigh.Upper.Ant			L.Knee.Lat			L.Knee.Med			L.Shank.Upper.Post			L.Shank.Lower.Ant			L.Shank.Lower.Post			L.Shank.Upper.Ant			L.Ankle.Lat			L.Ankle.Med			L.Heel.Upper			L.Heel.Med			L.Heel.Lat			L.Toe.Lat			L.Toe.Med			L.Toe.Tip			Cervical.Spine			Back			
		X1	Y1	Z1	X2	Y2	Z2	X3	Y3	Z3	X4	Y4	Z4	X5	Y5	Z5	X6	Y6	Z6	X7	Y7	Z7	X8	Y8	Z8	X9	Y9	Z9	X10	Y10	Z10	X11	Y11	Z11	X12	Y12	Z12	X13	Y13	Z13	X14	Y14	Z14	X15	Y15	Z15	X16	Y16	Z16	X17	Y17	Z17	X18	Y18	Z18	X19	Y19	Z19	X20	Y20	Z20	X21	Y21	Z21	X22	Y22	Z22	X23	Y23	Z23	X24	Y24	Z24	X25	Y25	Z25	X26	Y26	Z26	X27	Y27	Z27	X28	Y28	Z28	X29	Y29	Z29	X30	Y30	Z30	X31	Y31	Z31	X32	Y32	Z32	X33	Y33	Z33	X34	Y34	Z34	X35	Y35	Z35	X36	Y36	Z36	X37	Y37	Z37	X38	Y38	Z38	X39	Y39	Z39	X40	Y40	Z40	X41	Y41	Z41	X42	Y42	Z42	X43	Y43	Z43	X44	Y44	Z44	X45	Y45	Z45	X46	Y46	Z46	X47	Y47	Z47	X48	Y48	Z48	X49	Y49	Z49	X50	Y50	Z50	X51	Y51	Z51	

347	1.4417	571.29	1267.5	309.74	420.67	1418.8	442.79	483.76	1464.7	153.27	443.91	1746.5	327.98	505.01	1006.5	400.44	525.86	1014.2	171.33	312.51	1025.4	298.68	326.69	1033.7	218.93	436.13	929.53	470.45	458.26	954.4	108.65	404.43	1085.7	434.74	465.29	1089.4	137.74	295.93	996.8	258.64	515.4	725.6	468.85	590.75	669.41	428.96	536.08	638.87	458.08	570.61	758.3	434.32	578.14	524.71	415.66	565.54	522.6	286.75	591.23	291.69	421.35	676.73	258.07	410.32	621.09	222.62	415.07	651.66	331.28	414.76	684.34	124.85	399.81	691.6	140.19	321.28	649.8	57.44	347.53	670.73	35.878	321.25	661.22	36.251	382.37	821.65	88.412	438.04	851.22	107.14	333.07	894.16	145.24	377.2	343.96	704.92	118.56	385.81	605.52	144.55	314.39	613.86	144.81	418.3	688.33	122.89	318.86	518.87	152.47	334.32	516.07	281.35	194.85	330.55	160.88	233.12	227.57	177.21	175.69	256.09	173.19	252.69	301.03	164.5	168	126.34	190.36	188.56	140.11	274.16	95.23	107.28	233.37	100.38	75.596	268.05	97.029	75.062	203.04	269.61	38.682	169.63	296.55	45.715	278.92	352.46	47.503	233.33	375.98	1490.3	291.41	293.43	1285.2	250.61
348	1.4458	576.87	1266.5	310.07	426.2	1417.7	443.28	489.26	1463.9	153.78	449.24	1745.6	328.4	510.74	1005.5	400.67	531.46	1013.3	171.51	318.16	1024.5	299.03	332.31	1032.9	219.28	441.86	928.56	470.67	463.62	953.6	108.77	410.16	1084.8	435.05	470.89	1088.5	137.95	301.53	995.97	258.99	521.07	724.66	468.89	596.23	668.41	428.78	541.56	637.91	457.94	576.22	757.33	434.37	583.69	523.91	415.39	569.96	521.62	286.48	598.13	290.93	421.11	683.71	257.83	409.59	628.35	222.03	414.73	658.23	330.88	414.16	692.23	124.65	399.2	698.78	139.97	320.61	657.84	56.919	347.37	678.7	35.447	321	669.63	35.922	382.23	830.13	89.436	436.56	858.77	108.1	331.31	901.75	146.69	375.02	348.43	704.42	119.02	390.19	604.97	144.57	318.8	613.53	145.02	422.89	687.68	122.92	322.95	518.5	152.61	338.63	515.52	281.48	197.53	331.17	160.83	234.87	227.87	177.13	177.72	256.88	173.1	255.12	301.14	164.52	168.82	127.14	190.21	189.52	140.79	273.97	95.891	108.58	233.14	100.82	76.959	267.9	97.447	76.285	202.87	269.73	38.605	169.57	296.74	45.744	278.83	352.56	47.299	233.29	381.51	1489.4	291.94	298.95	1284.3	251.03
349	1.45	582.46	1265.4	310.4	431.76	1416.6	443.78	494.76	1463.1	154.3	454.58	1744.8	328.82	516.5	1004.5	400.9	537.08	1012.3	171.68	323.84	1023.7	299.39	337.95	1032.1	219.64	447.63	927.62	470.89	469	952.81	108.91	415.92	1083.8	435.38	476.49	1087.6	138.17	307.16	995.12	259.36	526.85	723.78	468.91	601.86	667.5	428.58	547.2	637.02	457.79	581.95	756.46	434.38	589.34	523.15	415.11	574.56	520.71	286.23	604.78	290.18	420.85	690.36	257.48	408.84	635.23	221.42	414.39	664.59	330.39	413.52	699.56	124.35	398.56	705.4	139.62	319.93	665.17	56.442	347.2	685.93	35.014	320.74	677.3	35.611	382.07	837.94	90.093	435.05	865.67	108.65	329.51	908.79	147.61	372.82	353	703.86	119.49	394.71	604.38	144.62	323.36	613.14	145.26	427.59	687.01	122.97	327.19	518.08	152.79	343.1	514.93	281.64	200.33	331.81	160.79	236.71	228.17	177.05	179.85	257.68	173.02	257.66	301.25	164.55	169.68	127.98	190.05	190.53	141.51	273.76	96.595	109.95	232.89	101.3	78.396	267.72	97.894	77.575	202.7	269.84	38.53	169.52	296.94	45.769	278.73	352.66	47.099	233.27	387.05	1488.5	292.51	304.48	1283.3	251.48
350	1.4542	588.07	1264.5	310.74	437.35	1415.6	444.31	500.24	1462.4	154.84	459.92	1743.9	329.23	522.29	1003.5	401.12	542.71	1011.4	171.84	329.54	1022.8	299.77	343.61	1031.3	220.01	453.45	926.71	471.11	474.39	952.02	109.06	421.71	1082.8	435.72	482.09	1086.7	138.4	312.83	994.26	259.75	532.76	722.97	468.9	607.63	666.69	428.36	553.01	636.21	457.62	587.79	755.67	434.35	595.1	522.43	414.82	579.35	519.87	286.01	611.19	289.46	420.56	696.69	257.02	408.05	641.76	220.81	414.05	670.78	329.83	412.85	706.35	123.95	397.92	711.49	139.14	319.23	671.83	56.019	347.01	692.4	34.585	320.47	684.23	35.321	381.89	845.09	90.359	433.52	871.95	108.76	327.69	915.29	147.97	370.6	357.68	703.24	119.98	399.39	603.76	144.7	328.06	612.68	145.52	432.41	686.31	123.05	331.6	517.63	152.99	347.72	514.29	281.82	203.25	332.45	160.75	238.62	228.49	176.97	182.08	258.51	172.93	260.31	301.35	164.58	170.6	128.86	189.88	191.59	142.25	273.54	97.349	111.4	232.63	101.81	79.913	267.54	98.374	78.938	202.51	269.95	38.457	169.46	297.15	45.788	278.62	352.76	46.904	233.24	392.6	1487.6	293.11	310.02	1282.4	251.96
351	1.4583	593.69	1263.5	311.07	442.96	1414.5	444.85	505.73	1461.7	155.39	465.28	1743.1	329.66	528.1	1002.6	401.34	548.36	1010.5	172.01	335.26	1022	300.16	349.28	1030.5	220.39	459.32	925.84	471.32	479.82	951.24	109.22	427.54	1081.9	436.07	487.69	1085.9	138.62	318.53	993.4	260.15	538.79	722.22	468.87	613.54	665.97	428.11	558.97	635.47	457.45	593.73	754.96	434.28	600.96	521.74	414.53	584.34	519.1	285.8	617.36	288.76	420.26	702.73	256.44	407.25	647.93	220.17	413.72	676.78	329.2	412.16	712.6	123.46	397.28	717.07	138.54	318.54	677.81	55.658	346.82	698.13	34.169	320.19	690.42	35.057	381.71	851.62	90.221	431.96	877.62	108.44	325.87	921.28	147.77	368.4	362.47	702.57	120.48	404.22	603.11	144.82	332.91	612.17	145.81	437.35	685.6	123.16	336.18	517.13	153.22	352.5	513.61	282.04	206.31	333.12	160.71	240.63	228.82	176.89	184.42	259.36	172.85	263.08	301.45	164.63	171.57	129.8	189.69	192.71	143.02	273.3	98.16	112.93	232.35	102.37	81.517	267.35	98.894	80.381	202.31	270.06	38.386	169.41	297.37	45.802	278.5	352.86	46.713	233.21	398.17	1486.8	293.73	315.59	1281.5	252.47
352	1.4625	599.33	1262.5	311.41	448.6	1413.5	445.41	511.21	1461	155.95	470.64	1742.3	330.08	533.96	1001.7	401.55	554.01	1009.6	172.16	341.01	1021.2	300.56	354.97	1029.7	220.79	465.24	925	471.54	485.26	950.46	109.41	433.4	1081	436.43	493.3	1085.1	138.85	324.26	992.54	260.58	544.92	721.54	468.82	619.58	665.33	427.84	565.07	634.81	457.27	599.78	754.32	434.18	606.91	521.09	414.22	589.52	518.39	285.61	623.3	288.09	419.96	708.48	255.76	406.45	653.77	219.53	413.4	682.62	328.5	411.44	718.34	122.87	396.65	722.15	137.82	317.86	683.15	55.366	346.64	703.15	33.772	319.93	695.91	34.826	381.54	857.52	89.676	430.41	882.71	107.68	324.05	926.78	147	366.23	367.39	701.86	120.99	409.21	602.44	144.97	337.91	611.6	146.11	442.42	684.87	123.29	340.93	516.59	153.49	357.45	512.89	282.28	209.49	333.79	160.68	242.72	229.17	176.8	186.87	260.25	172.76	265.96	301.55	164.67	172.61	130.78	189.5	193.89	143.83	273.04	99.037	114.55	232.05	102.99	83.216	267.14	99.459	81.909	202.1	270.17	38.316	169.35	297.6	45.807	278.38	352.96	46.528	233.19	403.74	1486	294.39	321.17	1280.6	253.01
353	1.4667	604.99	1261.6	311.75	454.26	1412.5	445.98	516.68	1460.3	156.53	476.01	1741.5	330.5	539.85	1000.9	401.76	559.68	1008.7	172.32	346.79	1020.4	300.99	360.69	1028.9	221.2	471.22	924.21	471.76	490.74	949.69	109.6	439.29	1080.2	436.81	498.92	1084.3	139.08	330.03	991.69	261.02	551.16	720.92	468.75	625.72	664.77	427.54	571.31	634.2	457.08	605.92	753.76	434.04	612.95	520.48	413.91	594.91	517.75	285.43	629.03	287.44	419.65	713.97	254.98	405.65	659.29	218.87	413.1	688.31	327.73	410.71	723.6	122.18	396.05	726.76	136.98	317.2	687.88	55.152	346.47	707.5	33.405	319.67	700.71	34.634	381.38	862.85	88.728	428.88	887.26	106.49	322.27	931.84	145.67	364.1	372.44	701.1	121.5	414.36	601.73	145.15	343.07	610.97	146.45	447.61	684.13	123.45	345.85	516	153.77	362.56	512.12	282.54	212.81	334.49	160.66	244.91	229.55	176.71	189.43	261.16	172.68	268.96	301.66	164.72	173.72	131.81	189.3	195.15	144.68	272.77	99.988	116.27	231.75	103.66	85.016	266.93	100.08	83.532	201.89	270.28	38.249	169.3	297.83	45.804	278.25	353.05	46.35	233.17	409.32	1485.2	295.07	326.77	1279.8	253.58
354	1.4708	610.66	1260.8	312.09	459.96	1411.6	446.58	522.14	1459.7	157.12	481.39	1740.8	330.93	545.77	1000.1	401.97	565.37	1007.9	172.47	352.59	1019.6	301.43	366.42	1028.1	221.61	477.26	923.45	471.98	496.24	948.93	109.82	445.23	1079.4	437.19	504.54	1083.5	139.31	335.83	990.86	261.47	557.48	720.37	468.66	631.98	664.28	427.22	577.65	633.67	456.88	612.14	753.26	433.87	619.07	519.91	413.6	600.49	517.18	285.27	634.55	286.83	419.34	719.2	254.1	404.86	664.52	218.21	412.82	693.85	326.91	409.98	728.42	121.43	395.48	730.95	136.05	316.57	692.03	55.022	346.33	711.2	33.076	319.44	704.88	34.487	381.23	867.62	87.396	427.38	891.31	104.9	320.53	936.47	143.8	362.03	377.63	700.3	122	419.67	601	145.36	348.4	610.29	146.81	452.93	683.37	123.63	350.95	515.39	154.08	367.85	511.32	282.82	216.26	335.21	160.64	247.2	229.95	176.62	192.11	262.11	172.59	272.09	301.78	164.77	174.9	132.9	189.08	196.49	145.56	272.48	101.02	118.09	231.43	104.4	86.927	266.71	100.76	85.256	201.68	270.38	38.185	169.25	298.08	45.79	278.1	353.14	46.177	233.15	414.9	1484.4	295.78	332.38	1279	254.18
355	1.475	616.35	1259.9	312.43	465.68	1410.7	447.19	527.6	1459.1	157.72	486.79	1740.1	331.36	551.74	999.29	402.18	571.07	1007.1	172.62	358.42	1018.8	301.88	372.17	1027.3	222.05	483.37	922.74	472.2	501.77	948.18	110.05	451.19	1078.6	437.59	510.16	1082.8	139.55	341.66	990.04	261.94	563.89	719.87	468.54	638.32	663.86	426.89	584.1	633.19	456.67	618.45	752.82	433.66	625.25	519.38	413.28	606.25	516.67	285.11	639.89	286.25	419.05	724.2	253.15	404.09	669.47	217.54	412.56	699.25	326.05	409.24	732.82	120.6	394.95	734.75	135.02	315.98	695.65	54.977	346.21	714.31	32.79	319.24	708.46	34.391	381.11	871.89	85.704	425.93	894.88	102.92	318.85	940.72	141.42	360.05	382.95	699.46	122.51	425.15	600.24	145.59	353.88	609.54	147.19	458.37	682.6	123.83	356.23	514.73	154.41	373.32	510.47	283.12	219.86	335.95	160.63	249.59	230.38	176.51	194.91	263.1	172.5	275.35	301.92	164.81	176.18	134.05	188.86	197.92	146.49	272.17	102.16	120.02	231.1	105.22	88.955	266.48	101.51	87.09	201.47	270.48	38.125	169.2	298.34	45.766	277.95	353.22	46.012	233.14	420.5	1483.7	296.52	338.02	1278.2	254.81
356	1.4792	622.05	1259.1	312.77	471.44	1409.8	447.83	533.05	1458.6	158.33	492.19	1739.5	331.79	557.75	998.59	402.38	576.78	1006.4	172.77	364.28	1018.1	302.35	377.95	1026.6	222.49	489.54	922.07	472.43	507.32	947.44	110.29	457.2	1077.8	438	515.8	1082.1	139.79	347.52	989.24	262.43	570.37	719.42	468.41	644.74	663.49	426.53	590.63	632.77	456.46	624.82	752.43	433.43	631.5	518.89	412.97	612.17	516.23	284.97	645.06	285.71	418.76	729	252.14	403.36	674.17	216.88	412.32	704.52	325.15	408.52	736.86	119.72	394.45	738.2	133.93	315.43	698.79	55.019	346.11	716.9	32.554	319.06	711.49	34.347	381	875.67	83.689	424.54	898.05	100.62	317.26	944.63	138.59	358.18	388.41	698.6	123.02	430.8	599.46	145.85	359.53	608.74	147.6	463.95	681.82	124.05	361.7	514.04	154.76	378.97	509.57	283.44	223.6	336.73	160.62	252.1	230.84	176.4	197.85	264.13	172.41	278.74	302.07	164.84	177.55	135.26	188.63	199.45	147.46	271.84	103.4	122.07	230.77	106.14	91.109	266.25	102.35	89.044	201.26	270.59	38.07	169.16	298.61	45.731	277.78	353.3	45.853	233.14	426.11	1483	297.29	343.68	1277.5	255.47
